<svg width="8" height="8" viewBox="0 0 17 16" fill="none" xmlns="http://www.w3.org/2000/svg">
   <g clip-path="url(#clip0_20_2053)">
      <path fill-rule="evenodd" clip-rule="evenodd" d="M15.5308 9.80147H10.3199V15.0095C10.3199 15.3949 9.9941 15.7076 9.59265 15.7076H7.51555C7.11337 15.7076 6.78828 15.3949 6.78828 15.0095V9.80147H1.58319C1.19774 9.80147 0.88501 9.47638 0.88501 9.07419V6.90619C0.88501 6.50401 1.19774 6.17892 1.58319 6.17892H6.78828V1.06183C6.78828 0.676375 7.11337 0.363647 7.51555 0.363647H9.59265C9.9941 0.363647 10.3199 0.676375 10.3199 1.06183V6.17892H15.5308C15.9163 6.17892 16.229 6.50401 16.229 6.90619V9.07419C16.229 9.47638 15.9163 9.80147 15.5308 9.80147Z" fill="currentColor" />
   </g>
</svg>
