<?xml version="1.0" encoding="UTF-8" standalone="no"?>
<!-- Uploaded to: SVG Repo, www.svgrepo.com, Generator: SVG Repo Mixer Tools -->

<svg
   width="32"
   height="32"
   viewBox="0 0 0.96 0.96"
   fill="none"
   version="1.1"
   id="svg2"
   sodipodi:docname="logo.svg"
   inkscape:version="1.4.1 (93de688d07, 2025-03-30)"
   xml:space="preserve"
   inkscape:export-filename="/home/semi/Projects/omnikee/tauri/icons/Square310x310Logo.png"
   inkscape:export-xdpi="930"
   inkscape:export-ydpi="930"
   xmlns:inkscape="http://www.inkscape.org/namespaces/inkscape"
   xmlns:sodipodi="http://sodipodi.sourceforge.net/DTD/sodipodi-0.dtd"
   xmlns="http://www.w3.org/2000/svg"
   xmlns:svg="http://www.w3.org/2000/svg"><defs
     id="defs2" /><sodipodi:namedview
     id="namedview2"
     pagecolor="#505050"
     bordercolor="#ffffff"
     borderopacity="1"
     inkscape:showpageshadow="0"
     inkscape:pageopacity="0"
     inkscape:pagecheckerboard="1"
     inkscape:deskcolor="#505050"
     showguides="true"
     inkscape:zoom="10.134722"
     inkscape:cx="-15.540633"
     inkscape:cy="29.403865"
     inkscape:window-width="1908"
     inkscape:window-height="1225"
     inkscape:window-x="0"
     inkscape:window-y="0"
     inkscape:window-maximized="1"
     inkscape:current-layer="svg2"><sodipodi:guide
       position="8.331238,14.166134"
       orientation="0,-1"
       id="guide2"
       inkscape:locked="false" /><sodipodi:guide
       position="14.239684,14.17996"
       orientation="1,0"
       id="guide3"
       inkscape:locked="false" /></sodipodi:namedview><circle
     style="fill:#4f1c51;fill-opacity:1;stroke:none;stroke-width:2.61;stroke-dasharray:none;stroke-opacity:1"
     id="path5"
     cx="0.44993833"
     cy="0.46177879"
     r="0.42921749" /><g
     id="g4"
     transform="matrix(0.0583826,0,0,0.0583826,-0.13611827,-0.12778937)"><path
       d="m 17.729647,16.011 c 0.20574,0.2049 0.49378,0.7376 0,1.2294 l -0.52906,0.5269 c -0.20573,0.1756 -0.72301,0.4215 -1.14626,0 l -0.61723,-0.6147 c -0.61723,0.6147 -1.32263,0.2634 -1.58711,-0.0879 -0.4409,-0.6147 0.0881,-1.2294 0.0881,-1.2294 l -0.1763,-0.1756 c -0.8465,0.843 -1.5872,0.3513 -1.8517,0 -0.4409,-0.6147 0,-1.2294 0,-1.2294 0.1763,-0.3513 0.529,-0.3513 0.0882,-0.7903 l -0.5291,-0.527 c -0.4233,0.3513 -1.2933,0.4391 -1.6753004,0.4391 -2.0941,0 -3.7916,-1.6906 -3.7916,-3.77604 0,-2.08546 1.6975,-3.77606 3.7916,-3.77606 2.0940004,0 3.7915004,1.6906 3.7915004,3.77606 0,0.96594 -0.4409,1.66854 -0.4409,1.66854 l 2.29258,2.2832"
       stroke="#1c274c"
       stroke-width="1.5"
       stroke-linejoin="round"
       id="path1"
       style="stroke:#dca06d;stroke-width:0.9;stroke-dasharray:none;stroke-opacity:1"
       sodipodi:nodetypes="ccccccccccccsssscc" /><circle
       style="fill:none;stroke:#a55b4b;stroke-width:0.9;stroke-dasharray:none;stroke-opacity:1"
       id="path3"
       cx="-9.8775835"
       cy="9.8171701"
       r="1.135319"
       transform="scale(-1,1)" /><path
       style="fill:none;fill-opacity:1;stroke:#dca06d;stroke-width:0.9;stroke-dasharray:none;stroke-opacity:1"
       d="m 15.409385,13.647241 c 0.974803,0.674863 2.02459,-0.524894 2.02459,-3.7867345 0,-3.2618406 -3.861904,-6.9353215 -7.423498,-6.8986052 C 6.3735682,2.999394 2.8119314,5.8113251 2.7744392,9.8230142 2.7369472,13.834703 5.7363404,16.909082 10.310416,17.321498"
       id="path4"
       sodipodi:nodetypes="csssc" /></g></svg>
